<svg xmlns="http://www.w3.org/2000/svg" viewBox="0 0 900 1200" width="900" height="1200">
  <defs>
    <linearGradient id="bg5" x1="0" x2="1" y1="0" y2="1"><stop offset="0" stop-color="#facc15"/><stop offset="0.55" stop-color="#166534"/><stop offset="1" stop-color="#ffffff"/></linearGradient>
    <filter id="shadow5" x="-20%" y="-20%" width="140%" height="140%"><feDropShadow dx="0" dy="22" stdDeviation="24" flood-color="#000" flood-opacity=".28"/></filter>
  </defs>
  <rect width="900" height="1200" fill="#f3f4f6"/>
  <rect x="42" y="42" width="816" height="1116" rx="54" fill="#ffffff"/>
  <g filter="url(#shadow5)">
    <path d="M248 180 L348 120 H552 L652 180 L790 270 L704 430 L642 394 V1020 Q642 1086 576 1086 H324 Q258 1086 258 1020 V394 L196 430 L110 270 Z" fill="url(#bg5)"/>
    
    <path d="M348 120 Q450 196 552 120 L536 228 Q450 286 364 228 Z" fill="#111827" opacity=".9"/>
    
    
    
    
    
    <path d="M258 394 L258 1020 Q258 1086 324 1086 H576 Q642 1086 642 1020 V394" fill="none" stroke="#000" stroke-opacity=".12" stroke-width="10"/>
    <text x="450" y="420" text-anchor="middle" font-family="Arial Black, Arial, sans-serif" font-size="64" fill="#fff" stroke="#111827" stroke-width="4">YAMAL</text><text x="450" y="700" text-anchor="middle" font-family="Arial Black, Arial, sans-serif" font-size="250" fill="#fff" stroke="#111827" stroke-width="7">19</text>
    <text x="450" y="980" text-anchor="middle" font-family="Arial, sans-serif" font-size="34" font-weight="800" fill="#fff" opacity=".88">2026</text>
  </g>
</svg>